<svg xmlns="http://www.w3.org/2000/svg" version="1.1" xmlns:xlink="http://www.w3.org/1999/xlink" width="512" height="512" x="0" y="0" viewBox="0 0 512 512" style="enable-background:new 0 0 512 512" xml:space="preserve" class="">
	<g>
		<path fill="#e1b7a3" d="m417.27 210.37-70.85 43.25-71.61 55.59 8.21 35.96 212.44-118.5zM92.56 210.37l-76.02 16.3 210.53 117.44 7.95-34.9-81.11-61.39z" opacity="1" data-original="#e1b7a3">
		</path>
		<path fill="#bf998a" d="M240.92 369.21 16.54 493.82l72.22-98.28 92.31-57.56zM423.24 395.54l72.22 98.28L270.99 368.6l59.94-30.62z" opacity="1" data-original="#bf998a">
		</path>
		<path fill="#646482" d="M374.34 146.44a11.487 11.487 0 0 0-6.2-6.26l-36.73-15.44a11.686 11.686 0 0 0-15.26 5.89 11.423 11.423 0 0 0-.12 8.99 11.3 11.3 0 0 0 .73 1.48 17.725 17.725 0 0 1 1.02 15.735C313.85 166.685 304.16 191 299.3 203h41.3c5.08-11 10.83-24.265 13.73-30.795a18.1 18.1 0 0 1 12.12-10.327 11.415 11.415 0 0 0 7.89-15.438z" opacity="1" data-original="#646482">
		</path>
		<path fill="#59514f" d="M151.28 231a60.793 60.793 0 0 0 2.52 16.62c6.48 21.57 24.2 38.9 45.2 45.73V309h104v-15.65c19-6.2 35.66-21.11 43.34-39.93A62.4 62.4 0 0 0 351.1 231z" opacity="1" data-original="#59514f">
		</path>
		<path fill="#5fcda4" d="M301.47 20.43s-49.28 50.03-63.62 114.97a46.5 46.5 0 0 1-24.16-25.77 45.341 45.341 0 0 0-1.66-5.28c-.01-.03-.01-.06-.02-.09a46.536 46.536 0 0 1 24.19-52.71l66.13-33.37.04 2.23z" opacity="1" data-original="#5fcda4">
		</path>
		<path fill="#4ca987" d="m88.7 85.16 73.34-10.36A46.51 46.51 0 0 1 212 104.26l.03.09a48.377 48.377 0 0 0 1.66 5.28 46.446 46.446 0 0 1-5.13 34.96C159.71 99.46 90.69 86.52 90.69 86.52l-.75.5zM303.67 92.24a46.514 46.514 0 0 1-35.33 45.99c-1.03.26-2.07.48-3.1.66a46.311 46.311 0 0 1-27.39-3.49c14.34-64.94 63.62-114.97 63.62-114.97l.9-.02.39 21.67z" opacity="1" data-original="#4ca987">
		</path>
		<path fill="#5fcda4" d="M208.56 144.59a46.338 46.338 0 0 1-20.49 18.5c-.96.44-1.93.85-2.93 1.23a46.505 46.505 0 0 1-55.26-17.6l-27.89-41.7-12.05-18 .75-.5s69.02 12.94 117.87 58.07z" opacity="1" data-original="#5fcda4">
		</path>
		<path fill="#844a42" d="M16.54 226.67 16 242.41l165.07 95.57 60.555 32.145L257 360.25z" opacity="1" data-original="#844a42">
		</path>
		<path fill="#844a42" d="M495.46 226.67 256 360.25l12.062 9.875 62.868-32.145L496 242.41z" opacity="1" data-original="#844a42">
		</path>
		<path fill="#7f3d32" d="M256.23 360.34 17 494h20.18l218.28-117.29L472.65 494h22.81z" opacity="1" data-original="#7f3d32">
		</path>
		<path fill="#3f3938" d="M183.8 247.62a60.793 60.793 0 0 1-2.52-16.62h-30a60.793 60.793 0 0 0 2.52 16.62c6.48 21.57 24.2 38.9 45.2 45.73V309h30v-15.65c-21-6.83-38.72-24.16-45.2-45.73z" opacity="1" data-original="#3f3938">
		</path>
		<path fill="#4c4c63" d="M346.76 141.1a11.3 11.3 0 0 1-.73-1.48 11.42 11.42 0 0 1 .019-8.726l-14.639-6.154a11.686 11.686 0 0 0-15.26 5.89 11.423 11.423 0 0 0-.12 8.99 11.3 11.3 0 0 0 .73 1.48 17.725 17.725 0 0 1 1.02 15.735C313.85 166.685 304.16 191 299.3 203h30c4.86-12 14.55-36.315 18.48-46.165a17.725 17.725 0 0 0-1.02-15.735z" opacity="1" data-original="#4c4c63">
		</path>
		<path fill="#7a6f6c" d="M274.81 309h-39.79l-7.95 35.005L256 361.198l27.02-16.159zM353.33 203H149.05c-6.76 0-12.05 5.93-12.05 12.69v4.47A11.743 11.743 0 0 0 149.05 232h204.14c6.76 0 12.81-5.08 12.81-11.84v-4.47A13 13 0 0 0 353.33 203z" opacity="1" data-original="#7a6f6c" class="">
		</path>
		<path fill="#5b5452" d="M257.07 344.005 265.02 309h-30l-7.95 35.005L256 361.198l14.953-8.943zM167 220.16v-4.47c0-6.76 5.29-12.69 12.05-12.69h-30c-6.76 0-12.05 5.93-12.05 12.69v4.47A11.743 11.743 0 0 0 149.05 232h30A11.743 11.743 0 0 1 167 220.16z" opacity="1" data-original="#5b5452">
		</path>
		<path fill="#387c60" d="M305.036 23.94a5 5 0 0 0-7.125-7.016c-.735.746-18.207 18.605-35.535 47.01-14.17 23.227-30.469 57.582-33.042 95.6-23.82-29.749-56.816-48.65-81.71-59.63C117.18 86.481 92.641 81.794 91.611 81.6a5 5 0 0 0-1.842 9.828c.965.181 96.988 18.86 140.224 86.1a4.988 4.988 0 0 0 9.049-3.864C236.769 94.3 304.349 24.638 305.036 23.94z" opacity="1" data-original="#387c60">
		</path>
	</g>
</svg>
